<?xml version="1.0" encoding="utf-8"?>
<!-- Generator: Adobe Illustrator 25.3.1, SVG Export Plug-In . SVG Version: 6.00 Build 0)  -->
<svg version="1.1" id="Layer_1" xmlns="http://www.w3.org/2000/svg" xmlns:xlink="http://www.w3.org/1999/xlink" x="0px" y="0px"
	 viewBox="0 0 187.1 152.6" style="enable-background:new 0 0 187.1 152.6;" xml:space="preserve">
<style type="text/css">
	.st0{fill:#049579;stroke:#FFFFFF;stroke-width:2.5694;stroke-miterlimit:10;}
	.st1{fill:#049579;stroke:#FFFFFF;stroke-width:2.4985;stroke-miterlimit:10;}
	.st2{fill:#FFFFFF;stroke:#FFFFFF;stroke-width:2.6987;stroke-miterlimit:10;}
	.st3{fill:#010101;stroke:#FFFFFF;stroke-width:2.649;stroke-miterlimit:10;}
	.st4{fill:#010101;stroke:#FFFFFF;stroke-width:2.6516;stroke-miterlimit:10;}
	.st5{fill:none;stroke:#FFFFFF;stroke-width:2.6029;stroke-miterlimit:10;}
</style>
<path class="st0" d="M178.3,67.4c0.1,3.3-0.3,8.6-2.9,14.6c-0.6,0.1-1.2,0.3-1.9,0.4c-5.2,1.2-9.8,2.7-13.8,4
	c-1.7,0.6-3.5,0.6-4.2,0.4c-0.6-0.2-0.5-0.6,0.8-1.1c0.8-3.6,1-7.4,0.5-11.1c-0.1-0.5-0.1-1-0.2-1.6c0.1,0,0.2-0.1,0.3-0.1
	C166.1,67.7,176.4,67.4,178.3,67.4z"/>
<path class="st1" d="M28,71.9c-2-1.1-4.6-2.1-7.5-2.8c-2.1-0.5-3.9-0.6-6.4-0.7c-2.5-0.2-4.7-0.2-6.2-0.2c0.4,1.8,1.1,4.2,2.3,7.1
	c0.8,2,1.5,3.5,2.6,5c0.8,1,2.6,3,6,4.3c0.5,0.2,1,0.3,1.6,0.5c1,0.1,2.1,0.3,3.1,0.4c0,0,0,0,0.1,0c2.2,0.3,4.3,0.5,6.5,0.8
	c-0.1-0.4-0.1-0.7-0.2-1.1c0,0,0-0.1,0-0.2"/>
<ellipse class="st2" cx="93.4" cy="75.7" rx="64.4" ry="65.2"/>
<path class="st3" d="M68.6,14.7c-0.6,0.3-1.3,0.5-1.9,0.8c-0.8,0.3-1.5,0.7-2.3,1.1c-0.4,0.2-0.8,0.4-1.2,0.6
	c-0.4,0.2-0.9,0.5-1.3,0.7c-0.3,0.2-0.7,0.4-1,0.6c-0.4,0.2-0.8,0.5-1.2,0.7c-0.1,0-0.1,0.1-0.2,0.1c-0.5,0.3-1.1,0.7-1.6,1
	c-0.5,0.3-0.9,0.6-1.4,0.9c-0.4,0.2-0.7,0.5-1.1,0.8c-0.4,0.2-0.7,0.5-1,0.7c-0.4,0.3-0.7,0.6-1.1,0.9c-0.3,0.3-0.7,0.5-1,0.8
	c-0.4,0.3-0.7,0.6-1,0.9c-0.3,0.3-0.7,0.6-1,0.9c-0.4,0.4-0.8,0.7-1.2,1.1c-0.1,0.1-0.1,0.1-0.2,0.2c-0.4,0.4-0.8,0.8-1.2,1.2
	c-0.4,0.4-0.8,0.8-1.2,1.3c-0.4,0.4-0.8,0.9-1.2,1.3l0,0C45,32,44.5,32.5,44,33.1c-0.1,0.1-0.2,0.2-0.3,0.4
	c-0.3,0.4-0.6,0.8-0.9,1.2c-0.1,0.1-0.2,0.2-0.2,0.3c-0.3,0.5-0.7,0.9-1,1.4c-0.1,0.1-0.2,0.3-0.3,0.4c-0.5,0.6-0.9,1.2-1.3,1.9
	c-0.2,0.3-0.4,0.7-0.6,1c-0.2,0.3-0.4,0.6-0.6,0.9l0,0c-0.2,0.4-0.4,0.7-0.7,1.1c-0.1,0.2-0.2,0.4-0.3,0.5c0,0.1-0.1,0.1-0.1,0.2
	c0,0.1-0.1,0.2-0.1,0.2c-0.2,0.3-0.3,0.6-0.5,0.9c-0.2,0.3-0.3,0.6-0.5,0.9c-0.2,0.5-0.5,0.9-0.7,1.4c-0.1,0.2-0.2,0.4-0.3,0.6
	c-0.1,0.3-0.3,0.7-0.5,1c0,0,0,0.1-0.1,0.1c0,0,0,0,0,0c-0.3,0.6-0.6,1.2-0.8,1.9c-0.3,0.6-0.5,1.3-0.7,1.9c0,0.1-0.1,0.3-0.1,0.4
	c-0.2,0.6-0.4,1.2-0.6,1.8c-0.1,0.3-0.2,0.7-0.3,1c-0.1,0.3-0.2,0.7-0.3,1c0,0,0,0,0,0.1c0,0.1-0.1,0.2-0.1,0.4c0,0,0,0.1,0,0.1
	c0,0.1-0.1,0.2-0.1,0.3c0,0.1,0,0.1,0,0.2c0,0,0,0,0,0.1c0,0.1,0,0.1,0,0.1c0,0.1,0,0.2-0.1,0.2c-0.2,0.6-0.3,1.2-0.4,1.8
	c0,0,0,0,0,0.1c-0.1,0.5-0.2,1-0.3,1.5c-0.1,0.3-0.1,0.6-0.2,0.9c-0.1,0.5-0.2,1.1-0.3,1.6c-5.4-2-10-5.2-13.6-9.4
	C11.9,47.9,9,40.6,9.1,32.6C9.5,15,24.4,1,42.6,1.4C53.3,1.6,62.8,6.8,68.6,14.7z"/>
<path class="st4" d="M175.8,33.8c0.2,7-1.9,13.6-5.7,19c-3.3,4.9-7.8,8.8-13.3,11.5c-0.1-0.7-0.2-1.4-0.3-2.1
	c-0.3-1.6-0.6-3.1-1-4.7c-5.2-20-20.1-36.2-39.5-43.7c-0.2-0.1-0.5-0.2-0.7-0.3c6.1-7.2,15.3-11.9,25.6-12.2
	C159.8,0.9,175.4,15.4,175.8,33.8z"/>
<path class="st0" d="M111.2,150.8c6.3,0.6,20.7,2,32.7-5.7c4.2-2.7,6.5-5.6,10.1-10c11.1-14,10.6-23.1,20.7-40.9
	c1.9-3.3,5.1-8.5,9.8-14.6c-2.5,0.2-5.1,0.4-7.9,0.8c-0.5,0.1-0.9,0.1-1.4,0.2c-0.6,0.1-1.3,0.2-1.9,0.3c-5.2,0.9-9.9,2.1-14,3.3
	c-3.1,0.9-6.4,2.1-9.7,3.5c-12.2,5-21.2,11.3-27.3,16.4c-0.3,1.7-0.6,3.3-1.1,5c-0.9,3.5-2.2,6.7-3.6,9.7c-0.4,0.9-2.1,4.4-5.8,9.4
	c0,0-1.1,1.5-2.4,3.1c-5,6.2-12.6,13.2-15.3,15.6c2.8,1.1,6.6,2.3,11.3,3.1C105.4,150,108.3,150.5,111.2,150.8z"/>
<path class="st0" d="M95.4,146.7c-0.1,0-0.1,0-0.2,0.1c-15.3,7.4-38.9,5.9-54.6-6c-6.2-4.7-9.4-9.8-14.7-18.2
	c-5.3-8.4-6.6-13.2-13-24.4C8.8,91,5,85.4,2.5,82c2.9,0.1,7.2,0.3,12.4,0.9c1.8,0.2,3.7,0.5,5.7,0.8c3.6,0.6,7.4,1.4,11.4,2.4
	c10.4,2.8,21.8,7.4,31.8,15.1c1.5,1.1,3,2.3,4.4,3.5c0.8,3.1,1.7,5.7,2.5,7.7c0,0,0,0.1,0,0.1c1.6,5.8,4.5,11.2,7.9,16.2
	c2,2.8,4.1,5.5,6.4,8c1.4,1.5,2.7,3,4.1,4.3C91.2,143,93.3,144.9,95.4,146.7z"/>
<path class="st5" d="M124.8,103.9"/>
<path class="st0" d="M122.9,95.8c0,0.9-0.1,1.9-0.1,2.8c-0.1,1.1-0.2,2.2-0.3,3.3c-0.1,0.7-0.2,1.4-0.3,2c-0.3,1.7-0.6,3.3-1.1,5
	c-0.9,3.5-2.1,6.7-3.5,9.7c-0.4,0.9-2.1,4.4-5.7,9.4c-0.7,1-1.5,2-2.3,3.1c-3.1,4-7.7,9.2-14.2,14.7c-0.1,0.1-0.2,0.2-0.4,0.3
	c-3.8-3.1-8.8-7.7-13.7-13.8c-0.9-1.1-1.9-2.4-3-3.8c-2.9-3.8-6-8.7-8.5-15.1c0-0.1-0.1-0.2-0.1-0.3c0-0.1-0.1-0.2-0.1-0.3
	c-0.1-0.2-0.2-0.5-0.3-0.7c0,0,0-0.1,0-0.1c-0.8-2-1.7-4.6-2.4-7.7c-1.3-5.2-2.1-11.7-1.1-19.3c1.6-11.8,6.9-19.9,9.2-23.5
	c1-1.5,2.1-3,3.2-4.3C84,50,90.3,45.5,94.4,43c3.2,2,8.7,5.9,14,12.1c2.7,3.1,5.3,6.8,7.6,11.1c0,0,0,0,0.1,0.1
	c0,0.1,0.1,0.2,0.2,0.4c0.1,0.1,0.2,0.3,0.2,0.5c0,0.1,0.1,0.2,0.2,0.3C118.4,71.4,123.2,83,122.9,95.8z"/>
</svg>
